<svg xmlns="http://www.w3.org/2000/svg" width="1600" height="1050" viewBox="0 0 1600 1050" role="img" aria-labelledby="title desc">
  <title id="title">DocMind System Design</title>
  <desc id="desc">Architecture diagram showing Vercel frontend, Render Spring Boot backend, Neon PostgreSQL, Gemini AI services, source ingestion, retrieval, chat, and Studio artifact generation.</desc>
  <defs>
    <style>
      .bg { fill: #0f141b; }
      .panel { fill: #151c25; stroke: #2b3645; stroke-width: 2; }
      .panel2 { fill: #111820; stroke: #334155; stroke-width: 2; }
      .frontend { fill: #172033; stroke: #5b7cfa; }
      .backend { fill: #18251e; stroke: #4ade80; }
      .data { fill: #231c2e; stroke: #c084fc; }
      .ai { fill: #2a2118; stroke: #f59e0b; }
      .ops { fill: #1e293b; stroke: #38bdf8; }
      .text { fill: #f8fafc; font-family: Inter, Segoe UI, Arial, sans-serif; }
      .muted { fill: #a7b2c2; font-family: Inter, Segoe UI, Arial, sans-serif; }
      .small { font-size: 22px; }
      .xs { font-size: 18px; }
      .title { font-size: 42px; font-weight: 700; }
      .h2 { font-size: 27px; font-weight: 700; }
      .h3 { font-size: 22px; font-weight: 700; }
      .line { stroke: #8ea2bd; stroke-width: 3; fill: none; marker-end: url(#arrow); }
      .line2 { stroke: #64748b; stroke-width: 2.5; fill: none; marker-end: url(#arrow2); stroke-dasharray: 8 8; }
      .pill { fill: #253044; stroke: #3b485d; }
      .badge { fill: #312e81; }
    </style>
    <marker id="arrow" markerWidth="12" markerHeight="12" refX="10" refY="6" orient="auto">
      <path d="M2,2 L10,6 L2,10 Z" fill="#8ea2bd"/>
    </marker>
    <marker id="arrow2" markerWidth="12" markerHeight="12" refX="10" refY="6" orient="auto">
      <path d="M2,2 L10,6 L2,10 Z" fill="#64748b"/>
    </marker>
  </defs>

  <rect class="bg" x="0" y="0" width="1600" height="1050"/>

  <text class="text title" x="60" y="70">DocMind System Design</text>
  <text class="muted small" x="60" y="108">Notebook-scoped source ingestion, RAG chat, and Studio artifact generation</text>

  <rect class="panel frontend" x="55" y="155" width="310" height="260" rx="14"/>
  <text class="text h2" x="85" y="198">Vercel Frontend</text>
  <text class="muted xs" x="85" y="232">React + TypeScript + Vite</text>
  <rect class="pill" x="85" y="265" width="230" height="42" rx="10"/>
  <text class="text xs" x="105" y="292">Notebook Library</text>
  <rect class="pill" x="85" y="318" width="230" height="42" rx="10"/>
  <text class="text xs" x="105" y="345">Workspace: Sources / Chat / Studio</text>
  <rect class="pill" x="85" y="371" width="230" height="42" rx="10"/>
  <text class="text xs" x="105" y="398">JWT session + TanStack Query</text>

  <rect class="panel backend" x="500" y="145" width="455" height="405" rx="14"/>
  <text class="text h2" x="530" y="188">Render Backend</text>
  <text class="muted xs" x="530" y="222">Spring Boot 3.5 + Java 21 Docker container</text>

  <rect class="pill" x="530" y="255" width="180" height="46" rx="10"/>
  <text class="text xs" x="552" y="284">Auth + JWT</text>
  <rect class="pill" x="730" y="255" width="190" height="46" rx="10"/>
  <text class="text xs" x="752" y="284">Notebook Scope</text>
  <rect class="pill" x="530" y="318" width="180" height="46" rx="10"/>
  <text class="text xs" x="552" y="347">Documents</text>
  <rect class="pill" x="730" y="318" width="190" height="46" rx="10"/>
  <text class="text xs" x="752" y="347">Chunking</text>
  <rect class="pill" x="530" y="381" width="180" height="46" rx="10"/>
  <text class="text xs" x="552" y="410">RAG Search</text>
  <rect class="pill" x="730" y="381" width="190" height="46" rx="10"/>
  <text class="text xs" x="752" y="410">Chat History</text>
  <rect class="pill" x="530" y="444" width="180" height="46" rx="10"/>
  <text class="text xs" x="552" y="473">Studio Artifacts</text>
  <rect class="pill" x="730" y="444" width="190" height="46" rx="10"/>
  <text class="text xs" x="752" y="473">Actuator Health</text>

  <rect class="panel data" x="1090" y="155" width="360" height="290" rx="14"/>
  <text class="text h2" x="1120" y="198">Neon PostgreSQL</text>
  <text class="muted xs" x="1120" y="232">Flyway-managed relational storage</text>
  <text class="text xs" x="1120" y="275">users, notebooks, documents</text>
  <text class="text xs" x="1120" y="310">chunks, embeddings JSON TEXT</text>
  <text class="text xs" x="1120" y="345">chat sessions, chat messages</text>
  <text class="text xs" x="1120" y="380">studio artifacts + file paths</text>

  <rect class="panel ai" x="1090" y="520" width="360" height="230" rx="14"/>
  <text class="text h2" x="1120" y="563">Google Gemini</text>
  <text class="muted xs" x="1120" y="597">Server-side only</text>
  <text class="text xs" x="1120" y="638">Embedding model</text>
  <text class="text xs" x="1120" y="673">Grounded answer generation</text>
  <text class="text xs" x="1120" y="708">Studio JSON/Markdown</text>
  <text class="text xs" x="1120" y="743">Podcast TTS</text>

  <rect class="panel2" x="55" y="515" width="390" height="270" rx="14"/>
  <text class="text h2" x="85" y="558">Source Ingestion</text>
  <rect class="pill" x="85" y="590" width="130" height="42" rx="10"/>
  <text class="text xs" x="118" y="617">PDF</text>
  <rect class="pill" x="230" y="590" width="165" height="42" rx="10"/>
  <text class="text xs" x="262" y="617">Website URL</text>
  <rect class="pill" x="85" y="645" width="130" height="42" rx="10"/>
  <text class="text xs" x="113" y="672">YouTube</text>
  <rect class="pill" x="230" y="645" width="165" height="42" rx="10"/>
  <text class="text xs" x="251" y="672">Pasted Transcript</text>
  <text class="muted xs" x="85" y="725">PDFBox, jsoup, transcript parser</text>
  <text class="muted xs" x="85" y="760">Status + failure reason tracked</text>

  <rect class="panel2" x="500" y="625" width="455" height="220" rx="14"/>
  <text class="text h2" x="530" y="668">RAG Runtime</text>
  <text class="text xs" x="530" y="710">1. Embed question</text>
  <text class="text xs" x="530" y="745">2. Load notebook chunks</text>
  <text class="text xs" x="530" y="780">3. Cosine rank vectors in Java</text>
  <text class="text xs" x="530" y="815">4. Gemini answers with retrieved context</text>

  <rect class="panel2" x="55" y="865" width="670" height="125" rx="14"/>
  <text class="text h2" x="85" y="908">CI / Quality</text>
  <text class="text xs" x="85" y="946">GitHub Actions: Maven tests, Testcontainers PostgreSQL smoke test, frontend lint/test/build</text>
  <text class="muted xs" x="85" y="976">Dockerfile, Render Blueprint, Vercel config, Actuator health check</text>

  <rect class="panel2" x="790" y="865" width="660" height="125" rx="14"/>
  <text class="text h2" x="820" y="908">MVP Tradeoffs</text>
  <text class="text xs" x="820" y="946">JSON TEXT vectors, in-memory similarity, filesystem Studio media adapter</text>
  <text class="muted xs" x="820" y="976">Next: pgvector, object-storage adapter, retry/backoff, Prometheus/Grafana</text>

  <path class="line" d="M365 285 C420 285, 445 285, 500 285"/>
  <text class="muted xs" x="390" y="265">HTTPS API + JWT</text>

  <path class="line" d="M955 310 C1010 310, 1035 310, 1090 310"/>
  <text class="muted xs" x="982" y="287">JPA / Flyway</text>

  <path class="line" d="M955 455 C1030 500, 1035 600, 1090 640"/>
  <text class="muted xs" x="960" y="575">AI calls</text>

  <path class="line" d="M445 650 C470 590, 480 480, 530 410"/>
  <text class="muted xs" x="330" y="500">Index sources</text>

  <path class="line2" d="M730 625 C760 575, 810 555, 850 550"/>
  <path class="line2" d="M730 845 C820 830, 1020 770, 1090 710"/>

  <rect class="badge" x="60" y="122" width="164" height="34" rx="17"/>
  <text class="text xs" x="80" y="145">Deployed MVP</text>
</svg>
